<?xml version="1.0"?>
<!-- Generated by SVGo -->
<svg width="1250" height="1200"
     xmlns="http://www.w3.org/2000/svg"
     xmlns:xlink="http://www.w3.org/1999/xlink">
<rect x="0" y="0" width="1250" height="1200" fill='lightgray' />
<text x="10" y="200" style="font-size:35px;">2018</text>
<text x="100" y="270" style="text-anchor:middle">January</text>
<text x="100" y="290" style="fill:red;text-anchor:middle">839.85 lei</text>
<text x="100" y="310" style="fill:green;text-anchor:middle">509m³</text>
<text x="100" y="330" style="fill:green;text-anchor:middle">2267m³</text>
<text x="200" y="270" style="text-anchor:middle">February</text>
<text x="200" y="290" style="fill:red;text-anchor:middle">912.45 lei</text>
<text x="200" y="310" style="fill:green;text-anchor:middle">553m³</text>
<text x="200" y="330" style="fill:green;text-anchor:middle">2820m³</text>
<text x="300" y="270" style="text-anchor:middle">March</text>
<text x="300" y="290" style="fill:red;text-anchor:middle">808.5 lei</text>
<text x="300" y="310" style="fill:green;text-anchor:middle">490m³</text>
<text x="300" y="330" style="fill:green;text-anchor:middle">3310m³</text>
<text x="400" y="270" style="text-anchor:middle">April</text>
<text x="400" y="290" style="fill:red;text-anchor:middle">557.7 lei</text>
<text x="400" y="310" style="fill:green;text-anchor:middle">338m³</text>
<text x="400" y="330" style="fill:green;text-anchor:middle">3648m³</text>
<text x="500" y="270" style="text-anchor:middle">May</text>
<text x="500" y="290" style="fill:red;text-anchor:middle">176.55 lei</text>
<text x="500" y="310" style="fill:green;text-anchor:middle">107m³</text>
<text x="500" y="330" style="fill:green;text-anchor:middle">3755m³</text>
<path d="M100 250 L100 140 L200 130 L300 144 L400 177 L500 227 L500 250 Z" style="fill:red;opacity:0.5"/>
<path d="M100 250L100 179 L200 173 L300 182 L400 203 L500 236 L500 250 Z" style="fill:green;opacity:0.5"/>
<text x="10" y="450" style="font-size:35px;">2017</text>
<text x="100" y="520" style="text-anchor:middle">January</text>
<text x="100" y="540" style="fill:red;text-anchor:middle">1035.3 lei</text>
<text x="100" y="560" style="fill:green;text-anchor:middle">714m³</text>
<text x="100" y="580" style="fill:green;text-anchor:middle">32446m³</text>
<text x="200" y="520" style="text-anchor:middle">February</text>
<text x="200" y="540" style="fill:red;text-anchor:middle">797.5 lei</text>
<text x="200" y="560" style="fill:green;text-anchor:middle">550m³</text>
<text x="200" y="580" style="fill:green;text-anchor:middle">32996m³</text>
<text x="300" y="520" style="text-anchor:middle">March</text>
<text x="300" y="540" style="fill:red;text-anchor:middle">503.15 lei</text>
<text x="300" y="560" style="fill:green;text-anchor:middle">347m³</text>
<text x="300" y="580" style="fill:green;text-anchor:middle">33343m³</text>
<text x="400" y="520" style="text-anchor:middle">April</text>
<text x="400" y="540" style="fill:red;text-anchor:middle">354.75 lei</text>
<text x="400" y="560" style="fill:green;text-anchor:middle">215m³</text>
<text x="400" y="580" style="fill:green;text-anchor:middle">215m³</text>
<text x="500" y="520" style="text-anchor:middle">May</text>
<text x="500" y="540" style="fill:red;text-anchor:middle">354.75 lei</text>
<text x="500" y="560" style="fill:green;text-anchor:middle">215m³</text>
<text x="500" y="580" style="fill:green;text-anchor:middle">430m³</text>
<text x="600" y="520" style="text-anchor:middle">June</text>
<text x="600" y="540" style="fill:red;text-anchor:middle">168.3 lei</text>
<text x="600" y="560" style="fill:green;text-anchor:middle">102m³</text>
<text x="600" y="580" style="fill:green;text-anchor:middle">532m³</text>
<text x="700" y="520" style="text-anchor:middle">July</text>
<text x="700" y="540" style="fill:red;text-anchor:middle">145.2 lei</text>
<text x="700" y="560" style="fill:green;text-anchor:middle">88m³</text>
<text x="700" y="580" style="fill:green;text-anchor:middle">620m³</text>
<text x="800" y="520" style="text-anchor:middle">August</text>
<text x="800" y="540" style="fill:red;text-anchor:middle">146.85 lei</text>
<text x="800" y="560" style="fill:green;text-anchor:middle">89m³</text>
<text x="800" y="580" style="fill:green;text-anchor:middle">709m³</text>
<text x="900" y="520" style="text-anchor:middle">September</text>
<text x="900" y="540" style="fill:red;text-anchor:middle">153.45 lei</text>
<text x="900" y="560" style="fill:green;text-anchor:middle">93m³</text>
<text x="900" y="580" style="fill:green;text-anchor:middle">802m³</text>
<text x="1000" y="520" style="text-anchor:middle">October</text>
<text x="1000" y="540" style="fill:red;text-anchor:middle">336.6 lei</text>
<text x="1000" y="560" style="fill:green;text-anchor:middle">204m³</text>
<text x="1000" y="580" style="fill:green;text-anchor:middle">1006m³</text>
<text x="1100" y="520" style="text-anchor:middle">November</text>
<text x="1100" y="540" style="fill:red;text-anchor:middle">491.7 lei</text>
<text x="1100" y="560" style="fill:green;text-anchor:middle">298m³</text>
<text x="1100" y="580" style="fill:green;text-anchor:middle">1304m³</text>
<text x="1200" y="520" style="text-anchor:middle">December</text>
<text x="1200" y="540" style="fill:red;text-anchor:middle">749.1 lei</text>
<text x="1200" y="560" style="fill:green;text-anchor:middle">454m³</text>
<text x="1200" y="580" style="fill:green;text-anchor:middle">1758m³</text>
<path d="M100 500 L100 364 L200 395 L300 434 L400 454 L500 454 L600 478 L700 481 L800 481 L900 480 L1000 456 L1100 436 L1200 402 L1200 500 Z" style="fill:red;opacity:0.5"/>
<path d="M100 500L100 401 L200 423 L300 452 L400 470 L500 470 L600 486 L700 488 L800 488 L900 487 L1000 472 L1100 459 L1200 437 L1200 500 Z" style="fill:green;opacity:0.5"/>
<text x="10" y="700" style="font-size:35px;">2016</text>
<text x="100" y="770" style="text-anchor:middle">January</text>
<text x="100" y="790" style="fill:red;text-anchor:middle">833.75 lei</text>
<text x="100" y="810" style="fill:green;text-anchor:middle">575m³</text>
<text x="100" y="830" style="fill:green;text-anchor:middle">29036m³</text>
<text x="200" y="770" style="text-anchor:middle">February</text>
<text x="200" y="790" style="fill:red;text-anchor:middle">852.6 lei</text>
<text x="200" y="810" style="fill:green;text-anchor:middle">588m³</text>
<text x="200" y="830" style="fill:green;text-anchor:middle">29624m³</text>
<text x="300" y="770" style="text-anchor:middle">March</text>
<text x="300" y="790" style="fill:red;text-anchor:middle">494.45 lei</text>
<text x="300" y="810" style="fill:green;text-anchor:middle">341m³</text>
<text x="300" y="830" style="fill:green;text-anchor:middle">29965m³</text>
<text x="400" y="770" style="text-anchor:middle">April</text>
<text x="400" y="790" style="fill:red;text-anchor:middle">368.3 lei</text>
<text x="400" y="810" style="fill:green;text-anchor:middle">254m³</text>
<text x="400" y="830" style="fill:green;text-anchor:middle">30219m³</text>
<text x="500" y="770" style="text-anchor:middle">May</text>
<text x="500" y="790" style="fill:red;text-anchor:middle">232 lei</text>
<text x="500" y="810" style="fill:green;text-anchor:middle">160m³</text>
<text x="500" y="830" style="fill:green;text-anchor:middle">30379m³</text>
<text x="600" y="770" style="text-anchor:middle">June</text>
<text x="600" y="790" style="fill:red;text-anchor:middle">166.75 lei</text>
<text x="600" y="810" style="fill:green;text-anchor:middle">115m³</text>
<text x="600" y="830" style="fill:green;text-anchor:middle">30494m³</text>
<text x="700" y="770" style="text-anchor:middle">July</text>
<text x="700" y="790" style="fill:red;text-anchor:middle">120.35 lei</text>
<text x="700" y="810" style="fill:green;text-anchor:middle">83m³</text>
<text x="700" y="830" style="fill:green;text-anchor:middle">30577m³</text>
<text x="800" y="770" style="text-anchor:middle">August</text>
<text x="800" y="790" style="fill:red;text-anchor:middle">131.95 lei</text>
<text x="800" y="810" style="fill:green;text-anchor:middle">91m³</text>
<text x="800" y="830" style="fill:green;text-anchor:middle">30668m³</text>
<text x="900" y="770" style="text-anchor:middle">September</text>
<text x="900" y="790" style="fill:red;text-anchor:middle">134.85 lei</text>
<text x="900" y="810" style="fill:green;text-anchor:middle">93m³</text>
<text x="900" y="830" style="fill:green;text-anchor:middle">30761m³</text>
<text x="1000" y="770" style="text-anchor:middle">October</text>
<text x="1000" y="790" style="fill:red;text-anchor:middle">223.3 lei</text>
<text x="1000" y="810" style="fill:green;text-anchor:middle">154m³</text>
<text x="1000" y="830" style="fill:green;text-anchor:middle">30915m³</text>
<text x="1100" y="770" style="text-anchor:middle">November</text>
<text x="1100" y="790" style="fill:red;text-anchor:middle">477.05 lei</text>
<text x="1100" y="810" style="fill:green;text-anchor:middle">329m³</text>
<text x="1100" y="830" style="fill:green;text-anchor:middle">31244m³</text>
<text x="1200" y="770" style="text-anchor:middle">December</text>
<text x="1200" y="790" style="fill:red;text-anchor:middle">707.6 lei</text>
<text x="1200" y="810" style="fill:green;text-anchor:middle">488m³</text>
<text x="1200" y="830" style="fill:green;text-anchor:middle">31732m³</text>
<path d="M100 750 L100 640 L200 638 L300 685 L400 702 L500 720 L600 728 L700 735 L800 733 L900 733 L1000 721 L1100 688 L1200 657 L1200 750 Z" style="fill:red;opacity:0.5"/>
<path d="M100 750L100 670 L200 668 L300 703 L400 715 L500 728 L600 734 L700 739 L800 738 L900 737 L1000 729 L1100 704 L1200 682 L1200 750 Z" style="fill:green;opacity:0.5"/>
</svg>
